<svg xmlns="http://www.w3.org/2000/svg" width="28" height="28" fill="none" viewBox="0 0 28 28">
  <symbol id="floppy">
    <path fill="#000" d="M0 0h2.15v2.15H0zM0 2.15h2.15V4.3H0zM0 4.31h2.15v2.15H0zM0 6.46h2.15v2.15H0zM0 8.62h2.15v2.15H0zM0 10.77h2.15v2.15H0zM0 12.92h2.15v2.15H0zM0 15.08h2.15v2.15H0zM0 17.23h2.15v2.15H0zM0 19.38h2.15v2.15H0zM0 21.54h2.15v2.15H0zM0 23.69h2.15v2.15H0zM0 25.85h2.15V28H0zM23.7 0v2.15h-2.16V0zM21.54 0v2.15h-2.15V0zM19.38 0v2.15h-2.15V0zM17.23 0v2.15h-2.15V0zM15.08 0v2.15h-2.15V0zM12.92 0v2.15h-2.15V0zM10.77 0v2.15H8.62V0zM8.62 0v2.15H6.47V0zM6.46 0v2.15H4.31V0zM4.3 0v2.15H2.17V0zM25.85 2.16V4.3H23.7V2.16zM6.46 4.3v2.16H4.3V4.3zM6.47 2.15V4.3H4.32V2.15zM6.46 6.46v2.15H4.31V6.46zM21.54 4.3v2.16h-2.15V4.3zM21.54 2.16V4.3H19.4V2.16zM21.54 6.46v2.15H19.4V6.46zM17.23 4.3v2.16h-2.15V4.3zM17.23 2.15V4.3h-2.15V2.15zM17.23 6.46v2.15h-2.15V6.46zM21.53 8.62v2.15h-2.15V8.62zM19.38 8.61v2.15h-2.15V8.61zM17.23 8.61v2.15h-2.15V8.61zM15.07 8.62v2.15h-2.15V8.62zM12.92 8.61v2.15h-2.15V8.61zM10.76 8.62v2.15H8.61V8.62zM8.61 8.62v2.15H6.46V8.62zM6.46 8.61v2.15H4.3V8.61zM23.69 15.07v2.15h-2.15v-2.15zM21.54 15.08v2.15h-2.15v-2.15zM19.38 15.07v2.15h-2.15v-2.15zM17.23 15.08v2.15h-2.15v-2.15zM15.07 15.08v2.15h-2.15v-2.15zM12.92 15.07v2.15h-2.15v-2.15zM10.77 15.08v2.15H8.62v-2.15zM8.61 15.08v2.15H6.46v-2.15zM6.46 15.08v2.15H4.3v-2.15zM23.7 17.23v2.15h-2.16v-2.15zM6.46 17.23v2.15H4.31v-2.15zM23.7 19.38v2.15h-2.15v-2.15zM6.47 19.38v2.15H4.32v-2.15zM23.7 21.54v2.15h-2.16v-2.15zM6.46 21.54v2.15H4.3v-2.15zM6.46 23.7v2.14H4.31V23.7zM23.7 23.69v2.15h-2.15v-2.15zM25.84 25.85V28H23.7v-2.15zM23.69 25.84V28h-2.15v-2.15zM21.53 25.85V28h-2.15v-2.15zM19.38 25.84V28h-2.15v-2.15zM17.23 25.85V28h-2.15v-2.15zM15.07 25.85V28h-2.15v-2.15zM12.92 25.84V28h-2.15v-2.15zM10.77 25.85V28H8.62v-2.15zM8.61 25.85V28H6.46v-2.15zM6.46 25.84V28H4.3v-2.15zM4.3 25.85V28H2.15v-2.15zM28 28h-2.15v-2.15H28zM28 25.84h-2.15V23.7H28zM28 23.7h-2.15v-2.16H28zM28 21.54h-2.15v-2.15H28zM28 19.39h-2.15v-2.15H28zM28 17.23h-2.15v-2.15H28zM28 15.07h-2.15v-2.15H28z"/><path fill="#000" d="M28 12.93h-2.15v-2.15H28zM28 10.77h-2.15V8.62H28zM28 8.61h-2.15V6.46H28zM28 6.46h-2.15V4.31H28z"/>
  </symbol>
</svg>